<svg xmlns="http://www.w3.org/2000/svg">
  <symbol id="arrow-down" viewBox="0 0 24 24">
    <path d="M12 5v14"/>
    <path d="m19 12-7 7-7-7"/>
  </symbol>
  <symbol id="arrow-left" viewBox="0 0 24 24">
    <path d="m12 19-7-7 7-7"/>
    <path d="M19 12H5"/>
  </symbol>
  <symbol id="arrow-right" viewBox="0 0 24 24">
    <path d="M5 12h14"/>
    <path d="m12 5 7 7-7 7"/>
  </symbol>
  <symbol id="arrow-up" viewBox="0 0 24 24">
    <path d="m5 12 7-7 7 7"/>
    <path d="M12 19V5"/>
  </symbol>
  <symbol id="chevron-down" viewBox="0 0 24 24">
    <path d="m6 9 6 6 6-6"/>
  </symbol>
  <symbol id="chart-pie" viewBox="0 0 24 24">
    <path d="M21 12c.552 0 1.005-.449.95-.998a10 10 0 0 0-8.953-8.953C12.449 1.995 12 2.448 12 3v8a1 1 0 0 0 1 1z"/>
    <path d="M21.21 15.89A10 10 0 1 1 8.11 2.99"/>
  </symbol>
  <symbol id="download" viewBox="0 0 24 24">
    <path d="M21 15v4a2 2 0 0 1-2 2H5a2 2 0 0 1-2-2v-4"/>
    <path d="m7 10 5 5 5-5"/>
    <path d="M12 15V3"/>
  </symbol>
  <symbol id="external-link" viewBox="0 0 24 24">
    <path d="M15 3h6v6"/>
    <path d="M10 14 21 3"/>
    <path d="M18 13v6a2 2 0 0 1-2 2H5a2 2 0 0 1-2-2V8a2 2 0 0 1 2-2h6"/>
  </symbol>
  <symbol id="grip-vertical" viewBox="0 0 24 24">
    <circle cx="9" cy="5" r="1"/>
    <circle cx="9" cy="12" r="1"/>
    <circle cx="9" cy="19" r="1"/>
    <circle cx="15" cy="5" r="1"/>
    <circle cx="15" cy="12" r="1"/>
    <circle cx="15" cy="19" r="1"/>
  </symbol>
  <symbol id="plus" viewBox="0 0 24 24">
    <path d="M5 12h14"/>
    <path d="M12 5v14"/>
  </symbol>
  <symbol id="table-2" viewBox="0 0 24 24">
    <path d="M9 3v18"/>
    <rect width="18" height="18" x="3" y="3" rx="2"/>
    <path d="M3 9h18"/>
    <path d="M3 15h18"/>
  </symbol>
  <symbol id="trash-2" viewBox="0 0 24 24">
    <path d="M10 11v6"/>
    <path d="M14 11v6"/>
    <path d="M19 6v14a2 2 0 0 1-2 2H7a2 2 0 0 1-2-2V6"/>
    <path d="M3 6h18"/>
    <path d="M8 6V4a2 2 0 0 1 2-2h4a2 2 0 0 1 2 2v2"/>
  </symbol>
  <symbol id="triangle-alert" viewBox="0 0 24 24">
    <path d="m21.73 18-8-14a2 2 0 0 0-3.46 0l-8 14A2 2 0 0 0 4 21h16a2 2 0 0 0 1.73-3"/>
    <path d="M12 9v4"/>
    <path d="M12 17h.01"/>
  </symbol>
  <symbol id="x" viewBox="0 0 24 24">
    <path d="M18 6 6 18"/>
    <path d="m6 6 12 12"/>
  </symbol>
</svg>
